<svg id="a100.svg" xmlns="http://www.w3.org/2000/svg" width="42.906" height="42" viewBox="0 0 42.906 42">
  <defs>
    <style>
      .cls-1, .cls-2 {
        fill-rule: evenodd;
      }

      .cls-1 {
        opacity: 0.3;
      }
    </style>
  </defs>
  <path id="Фигура_15" data-name="Фигура 15" class="cls-1" d="M889,159c-0.063.125-1.438-3.688,0-6a13.066,13.066,0,0,1,11-6c6.062-.125,6,1,6,1s-5.875,7-8,9-7,3-7,3A11.971,11.971,0,0,0,889,159Z" transform="translate(-866 -135)"/>
  <path id="Фигура_14" data-name="Фигура 14" class="cls-2" d="M906.919,147.418a39.026,39.026,0,0,1-3.544,5.233,0.585,0.585,0,0,1-.567.206,3.376,3.376,0,0,0-1.269.1l0.445,0.337a0.589,0.589,0,0,1,.233.42,0.6,0.6,0,0,1-.155.456c-4.737,5.122-9.316,6.344-11.624,6.617a0.534,0.534,0,0,1-.069,0,0.592,0.592,0,0,1-.068-1.18c2.076-.245,6.135-1.327,10.45-5.772l-0.774-.585a0.593,0.593,0,0,1,.09-1,5.285,5.285,0,0,1,2.6-.594,37.238,37.238,0,0,0,2.732-3.964c-2.724-.006-10.363.3-14.387,3.763a3.2,3.2,0,0,1-.645,2.65,0.585,0.585,0,0,1-.87-0.072l-0.267-.354a7.521,7.521,0,0,0-.741,4.043,0.587,0.587,0,1,1-1.171.088,8.453,8.453,0,0,1,1.37-5.519,0.588,0.588,0,0,1,.47-0.258,0.6,0.6,0,0,1,.481.234l0.214,0.282a3.9,3.9,0,0,0-.048-1.195,0.6,0.6,0,0,1,.177-0.56c5.184-4.8,16-4.287,16.463-4.264a0.588,0.588,0,0,1,.485.308A0.6,0.6,0,0,1,906.919,147.418ZM907.2,142.1c-0.369,0-2.327-.006-3.32,0h0a0.592,0.592,0,0,1,0-1.183c0.994,0,2.955,0,3.32,0a0.677,0.677,0,0,0,.506-0.126,0.615,0.615,0,0,0,.041-0.288V139.06a2.855,2.855,0,1,0-5.709,0v6.313a0.587,0.587,0,1,1-1.174,0V139.06a4.062,4.062,0,0,1,1.184-2.872c-1.536,0-28.342-.006-28.535,0a2.894,2.894,0,0,0-2.863,2.876v6.134a0.587,0.587,0,1,1-1.174,0V139.06A4.068,4.068,0,0,1,873.49,135c0.09,0,31.346,0,31.4,0a4.049,4.049,0,0,1,4.03,4.059v1.418a1.681,1.681,0,0,1-.24.967A1.657,1.657,0,0,1,907.2,142.1Zm-37.725,26.218V148.087a0.587,0.587,0,1,1,1.174,0v20.226A0.587,0.587,0,1,1,869.476,168.313Zm31.045-19.574a0.585,0.585,0,0,1,.763.33,0.592,0.592,0,0,1-.327.768c-3.947,1.59-10.895,5.49-13.079,13.753a0.588,0.588,0,0,1-.567.44,0.572,0.572,0,0,1-.151-0.021,0.592,0.592,0,0,1-.416-0.724C889.059,154.523,896.37,150.411,900.521,148.739Zm-22.85,4.39H884.3a0.591,0.591,0,0,1,0,1.182h-6.629A0.591,0.591,0,0,1,877.671,153.129Zm0,9.718H884.1a0.592,0.592,0,0,1,0,1.183h-6.431A0.592,0.592,0,0,1,877.671,162.847Zm0-4.856H884.1a0.592,0.592,0,0,1,0,1.183h-6.431A0.592,0.592,0,0,1,877.671,157.991ZM877.084,144a0.589,0.589,0,0,1,.587-0.591h17.073a0.591,0.591,0,0,1,0,1.182H877.671A0.589,0.589,0,0,1,877.084,144Zm11.01,5.447H877.671a0.592,0.592,0,0,1,0-1.183h10.423A0.592,0.592,0,0,1,888.094,149.449Zm8.314,22.212v1.282c0,2.577,1.272,2.876,2.228,2.876h0a1.938,1.938,0,0,0,1.732-.763,3.724,3.724,0,0,0,.5-2.113V158.838a0.587,0.587,0,1,1,1.174,0v14.105a4.85,4.85,0,0,1-.706,2.79,2.963,2.963,0,0,1-2.34,1.253c-0.042.01-29.7,0.014-29.711,0.014-1.28-.033-3.283-0.634-3.283-4.057v-1.282a1.914,1.914,0,0,1,1.947-1.874h26.516A1.914,1.914,0,0,1,896.408,171.661Zm-29.236,0v1.282c0,2.577,1.271,2.876,2.228,2.876h26.606a4.671,4.671,0,0,1-.772-2.876v-1.282a0.736,0.736,0,0,0-.773-0.691H867.945A0.736,0.736,0,0,0,867.172,171.661Z" transform="translate(-866 -135)"/>
</svg>

