<svg id="a102.svg" xmlns="http://www.w3.org/2000/svg" width="46.72" height="55" viewBox="0 0 46.72 55">
  <defs>
    <style>
      .cls-1, .cls-2 {
        fill-rule: evenodd;
      }

      .cls-1 {
        opacity: 0.3;
      }
    </style>
  </defs>
  <path id="Эллипс_2" data-name="Эллипс 2" class="cls-1" d="M1054,159h-8l-3-2v-3h12v3Zm-12.5,19a3.5,3.5,0,1,1,3.5-3.5A3.5,3.5,0,0,1,1041.5,178Z" transform="translate(-1026.28 -153)"/>
  <path id="Фигура_8_копия" data-name="Фигура 8 копия" class="cls-2" d="M1067.63,208h-38.52a3.1,3.1,0,0,1-2.72-1.254,0.559,0.559,0,0,1,.12-0.787,0.566,0.566,0,0,1,.79.116,1.992,1.992,0,0,0,1.8.816h38.3a4.418,4.418,0,0,0,4.47-4.4V165.269c0-3.137-.35-7.013-2.19-7.941a3.7,3.7,0,0,0-1.61-.36h-11.76a5.3,5.3,0,0,1-4.91,3.312h-3.87a5.286,5.286,0,0,1-4.9-3.312h-12.06a4.122,4.122,0,0,0-2.66.922,0.564,0.564,0,0,1-.36.132,0.6,0.6,0,0,1-.44-0.2,0.561,0.561,0,0,1,.07-0.793,5.293,5.293,0,0,1,3.39-1.185h11.75c-0.05-.271-0.07-1.008-0.07-1.008a1.836,1.836,0,0,1,1.84-1.835h10.76a1.842,1.842,0,0,1,1.84,1.835s-0.03.737-.07,1.008h11.45a4.8,4.8,0,0,1,2.11.478c2.36,1.188,2.82,5.447,2.82,8.948v37.224A5.342,5.342,0,0,1,1067.63,208Zm-12.78-53.876h-10.76a0.721,0.721,0,0,0-.72.71,6.846,6.846,0,0,0,.22,1.487,4.162,4.162,0,0,0,3.94,2.833h3.87a4.166,4.166,0,0,0,3.96-2.871,5.848,5.848,0,0,0,.2-1.449A0.712,0.712,0,0,0,1054.85,154.125Zm0.22,34.5c0.2-.324.39-0.652,0.56-0.991l4.89,4.814a4.989,4.989,0,0,1,.01,7.083,4.987,4.987,0,0,1-7.08,0l-4.91-4.832c0.34-.172.67-0.355,1-0.551l4.68,4.61a3.984,3.984,0,0,0,5.53.008,3.906,3.906,0,0,0,0-5.536Zm0.67-8.235a14.365,14.365,0,1,1-14.37-14.377A14.371,14.371,0,0,1,1055.74,180.388Zm-27.6,0a13.235,13.235,0,1,0,13.23-13.248A13.251,13.251,0,0,0,1028.14,180.388Zm17.66-5.549a4.435,4.435,0,1,1-4.43-4.439A4.444,4.444,0,0,1,1045.8,174.839Zm-4.43-3.309a3.312,3.312,0,1,0,3.3,3.309A3.317,3.317,0,0,0,1041.37,171.53Zm-2.92,7.9a5.167,5.167,0,0,0,5.88,0,0.566,0.566,0,0,1,.57-0.036l2.84,1.448a5.522,5.522,0,0,1,2.68,4.192,0.536,0.536,0,0,1-.02.177c-0.41,1.663-4.12,5.443-8.68,5.443-0.12,0-.24,0-0.35-0.008h-0.01c-5.09,0-8.39-3.576-8.97-5.4a0.515,0.515,0,0,1-.03-0.212,5.505,5.505,0,0,1,2.65-4.177l2.87-1.463A0.566,0.566,0,0,1,1038.45,179.427ZM1033.5,185a7.67,7.67,0,0,0,3.29,3.319v-2.049a0.562,0.562,0,0,1,.56-0.565,0.571,0.571,0,0,1,.57.565v2.59a9.011,9.011,0,0,0,3.37.65h0.12a7.908,7.908,0,0,0,3.41-.642v-2.6a0.565,0.565,0,1,1,1.13,0v2.036a8.126,8.126,0,0,0,3.33-3.291,4.372,4.372,0,0,0-2.08-3.188l-2.53-1.286a6.249,6.249,0,0,1-6.56,0l-2.56,1.3A4.381,4.381,0,0,0,1033.5,185Z" transform="translate(-1026.28 -153)"/>
</svg>

