<svg id="a93.svg" xmlns="http://www.w3.org/2000/svg" width="57" height="53" viewBox="0 0 57 53">
  <defs>
    <style>
      .cls-1, .cls-2 {
        fill-rule: evenodd;
      }

      .cls-1 {
        opacity: 0.3;
      }
    </style>
  </defs>
  <path id="Фигура_2_копия" data-name="Фигура 2 копия" class="cls-1" d="M530,118V108h8v10h-8Zm-17-10h6v10h-6V108Zm17,21H514v-5h16v5Z" transform="translate(-496.969 -91.969)"/>
  <path id="Фигура_1" data-name="Фигура 1" class="cls-2" d="M550.153,138.166H505.917v6.284a0.5,0.5,0,0,1-.5.5h-2.282a6.225,6.225,0,0,1-6.172-6.262V102.638a3.855,3.855,0,0,1,3.823-3.878h44.236V92.477a0.5,0.5,0,0,1,.5-0.5H547.8a6.225,6.225,0,0,1,6.172,6.262v36.054A3.855,3.855,0,0,1,550.153,138.166Zm-52.193.526a5.221,5.221,0,0,0,5.177,5.253h1.785V105.536a4.43,4.43,0,0,1-6.962,0v33.156Zm55.021-40.458a5.221,5.221,0,0,0-5.177-5.253h-1.785V131.4a4.424,4.424,0,0,1,6.962-.008V98.234Zm0,36.008a3.481,3.481,0,1,0-6.962,0v0.046a0.5,0.5,0,1,1-1,0V99.769H500.788a2.851,2.851,0,0,0-2.828,2.869,3.482,3.482,0,1,0,6.962.047v-0.047a0.5,0.5,0,1,1,.995,0v34.519h44.236a2.852,2.852,0,0,0,2.828-2.869v-0.046Zm-15.582-14.7v-1.015H526.162v1.015h-1V116.5h1v1.016h3.4v-9.783h-9.642v10.288a0.5,0.5,0,0,1-.5.5h-6a0.5,0.5,0,0,1-.5-0.5V107.734h-1v-1.008h2.989v1.008h-1v9.783h5V107.23a0.5,0.5,0,0,1,.5-0.5h10.636a0.5,0.5,0,0,1,.5.5v10.287H537.4V107.23h1V129.7h-1V119.542Zm-22.472,4.506h-1v5.144h15.637v-5.144h-0.925v-1.009h2.989v1.009h-1.07V129.7a0.5,0.5,0,0,1-.5.5H513.433a0.5,0.5,0,0,1-.5-0.5v-5.648h-1v-1.009h2.989v1.009Z" transform="translate(-496.969 -91.969)"/>
</svg>

