<svg id="a95.svg" xmlns="http://www.w3.org/2000/svg" width="58.031" height="52.969" viewBox="0 0 58.031 52.969">
  <defs>
    <style>
      .cls-1 {
        opacity: 0.3;
      }

      .cls-2 {
        fill-rule: evenodd;
      }
    </style>
  </defs>
  <circle id="Эллипс_1" data-name="Эллипс 1" class="cls-1" cx="29.531" cy="9.5" r="5.5"/>
  <path id="Фигура_3" data-name="Фигура 3" class="cls-2" d="M765.106,120.984H714.859a3.916,3.916,0,0,1-3.882-3.939V80.34a6.327,6.327,0,0,1,6.273-6.366h2.323a0.5,0.5,0,0,1,.5.5v6.405h12.8v1.009h-12.8v35.152a0.5,0.5,0,1,1-.994,0V117a3.553,3.553,0,1,0-7.105,0v0.048a2.913,2.913,0,0,0,2.888,2.93h50.247a2.913,2.913,0,0,0,2.888-2.93V117a3.553,3.553,0,1,0-7.105,0v0.048a0.5,0.5,0,1,1-1,0V81.894H747.1V80.884h12.8V74.479a0.5,0.5,0,0,1,.5-0.5h2.323a6.327,6.327,0,0,1,6.273,6.366v36.7A3.916,3.916,0,0,1,765.106,120.984Zm-49.582-8.6a4.516,4.516,0,0,1,3.552,1.737V74.983H717.25a5.324,5.324,0,0,0-5.279,5.357v33.789A4.5,4.5,0,0,1,715.524,112.384Zm52.47-32.044a5.324,5.324,0,0,0-5.279-5.357h-1.826V114.13a4.494,4.494,0,0,1,7.105-.009V80.34ZM743.2,82.821l4.83,14.165a16.67,16.67,0,0,0,5.286-2.032l0.54,0.847a17.415,17.415,0,0,1-5.5,2.151l5.157,15.125-0.94.33-5.2-15.248a37.561,37.561,0,0,1-6.78.667v3.212H739.6V98.824a37.354,37.354,0,0,1-6.772-.687l-5.208,15.27-0.94-.33,5.164-15.142a16.559,16.559,0,0,1-5.757-2.355l0.577-.822a15.657,15.657,0,0,0,5.5,2.225L737,82.821A5.937,5.937,0,1,1,743.2,82.821ZM733.157,97.18a36.726,36.726,0,0,0,6.446.636V95.169H740.6v2.648a36.7,36.7,0,0,0,6.449-.63l-4.739-13.9a5.733,5.733,0,0,1-4.413,0ZM740.1,72.691a5.016,5.016,0,1,0,4.943,5.015A4.985,4.985,0,0,0,740.1,72.691Zm3.311-3.68h-6.622v1.7H735.8V68.506a0.5,0.5,0,0,1,.5-0.5h7.616a0.5,0.5,0,0,1,.5.5v2.208h-0.994v-1.7Z" transform="translate(-710.969 -68)"/>
</svg>

