<svg id="a96.svg" xmlns="http://www.w3.org/2000/svg" width="62" height="49" viewBox="0 0 62 49">
  <defs>
    <style>
      .cls-1, .cls-2 {
        fill-rule: evenodd;
      }

      .cls-1 {
        opacity: 0.3;
      }
    </style>
  </defs>
  <path id="Фигура_7" data-name="Фигура 7" class="cls-1" d="M830,103v5h-5V99h11v4h-6Zm-1-18h3v5h-3V85Z" transform="translate(-805 -70)"/>
  <path id="Фигура_5" data-name="Фигура 5" class="cls-2" d="M828.18,91.515a0.71,0.71,0,0,1-.7-0.715V86.832a2.744,2.744,0,0,1,2.719-2.762h0.378a2.744,2.744,0,0,1,2.719,2.762V90.8a0.71,0.71,0,0,1-.7.715H828.18Zm3.986-4.684a1.608,1.608,0,0,0-1.593-1.618H830.2a1.607,1.607,0,0,0-1.592,1.618v3.539h3.563V86.832Zm5,13.03V104.2a0.564,0.564,0,1,1-1.127,0v-0.45h-5.1l0,3.426h3.3a0.572,0.572,0,0,1,0,1.144H825.4a1.813,1.813,0,0,1-1.8-1.825V99.862a1.813,1.813,0,0,1,1.8-1.826h9.966A1.813,1.813,0,0,1,837.164,99.862Zm-7.348-.681H825.4a0.677,0.677,0,0,0-.67.681v2.744h5.085V99.18Zm-5.085,4.57V106.5a0.676,0.676,0,0,0,.67.681h4.411l0-3.426h-5.085Zm6.211-1.144h5.1V99.862a0.677,0.677,0,0,0-.67-0.681h-4.425v3.426Zm35.012,10.526-0.027.01,1.036,4.841a0.575,0.575,0,0,1-.332.735,0.56,0.56,0,0,1-.724-0.338l-1.042-4.858-0.125.046a1.521,1.521,0,0,1-.515.089,1.563,1.563,0,0,1-1.474-1.06l-5-13.634h-3.837v0.932a0.563,0.563,0,1,1-1.126,0V98.963h-3.758l-4.1,13.634a1.558,1.558,0,0,1-1.992.971l-0.251-.09-1.866,4.378H847.4V107.748a0.563,0.563,0,1,1,1.126,0v10.421a0.856,0.856,0,0,1-.877.831H812.207a0.856,0.856,0,0,1-.877-0.831V93.4L806,98.968a0.558,0.558,0,0,1-.438.212,0.552,0.552,0,0,1-.354-0.127,0.578,0.578,0,0,1-.084-0.8l24.654-26.971a0.8,0.8,0,0,1,1.188,0l14.974,17.053a0.578,0.578,0,0,1-.083.8,0.557,0.557,0,0,1-.792-0.085l-14.693-16.7L812.456,91.984v25.872H839.62l2.009-4.769a1.584,1.584,0,0,1-.858-1.978l8.239-25.556a5.974,5.974,0,0,1,1.567-9.032,0.56,0.56,0,0,1,.767.219,0.578,0.578,0,0,1-.216.779,4.829,4.829,0,0,0-1.072,7.509,4.65,4.65,0,0,0,2.623,1.391,4.791,4.791,0,0,0,3.1-8.877,0.577,0.577,0,0,1-.208-0.781,0.558,0.558,0,0,1,.769-0.212,5.977,5.977,0,0,1,1.464,9.069l9.106,25.49A1.6,1.6,0,0,1,865.954,113.132ZM849.905,86.416l-8.071,25.072a0.445,0.445,0,0,0,.267.565l1.212,0.436a0.434,0.434,0,0,0,.555-0.272l7.98-24.82A5.728,5.728,0,0,1,849.905,86.416Zm3.91,1.18c-0.127.008-.256,0.028-0.381,0.028-0.154,0-.309-0.006-0.464-0.019l-3.539,10.214h3.361V97.071a0.563,0.563,0,1,1,1.126,0v0.748h3.44Zm12.032,23.892L856.9,86.461a5.861,5.861,0,0,1-1.955.957l8.866,24.8a0.433,0.433,0,0,0,.553.271l1.214-.435A0.445,0.445,0,0,0,865.847,111.488ZM856.218,79.8a3.419,3.419,0,0,1,.565,1.891,3.349,3.349,0,1,1-6.7,0,3.42,3.42,0,0,1,.527-1.829,0.555,0.555,0,0,1,.777-0.173,0.577,0.577,0,0,1,.171.79,2.222,2.222,0,1,0,3.723-.041,0.578,0.578,0,0,1,.154-0.794A0.556,0.556,0,0,1,856.218,79.8Zm-2.781.891h0a0.567,0.567,0,0,1-.563-0.569l-0.033-9.548a0.563,0.563,0,1,1,1.126-.007L854,80.117A0.567,0.567,0,0,1,853.437,80.693Z" transform="translate(-805 -70)"/>
</svg>

