<svg id="a97.svg" xmlns="http://www.w3.org/2000/svg" width="51" height="55" viewBox="0 0 51 55">
  <defs>
    <style>
      .cls-1, .cls-2 {
        fill-rule: evenodd;
      }

      .cls-1 {
        opacity: 0.3;
      }
    </style>
  </defs>
  <path id="Фигура_9" data-name="Фигура 9" class="cls-1" d="M921,88a4,4,0,1,1,4-4A4,4,0,0,1,921,88Zm-28-4h5v26h-5V84Z" transform="translate(-893 -66)"/>
  <path id="Фигура_8" data-name="Фигура 8" class="cls-2" d="M905.357,89.213V87.763a2.072,2.072,0,0,1,2.074-2.066h1.091v-1.15a1.338,1.338,0,0,1,1.34-1.334H915.8a4.8,4.8,0,0,1,9.527,0h5.363a1.338,1.338,0,0,1,1.339,1.334V85.7h1.092a2.071,2.071,0,0,1,2.073,2.066v1.451a2.071,2.071,0,0,1-2.073,2.066h-3.313a2.071,2.071,0,0,1-2.073-2.066V87.763a2.071,2.071,0,0,1,2.073-2.066H930.9v-1.15a0.209,0.209,0,0,0-.21-0.209h-5.363a4.8,4.8,0,0,1-4.2,4.184v3.624h2.188a2.105,2.105,0,0,1,2.107,2.1v3.106a2.106,2.106,0,0,1-2.107,2.1h-5.693a2.106,2.106,0,0,1-2.107-2.1V94.245a2.105,2.105,0,0,1,2.107-2.1H920V88.522a4.8,4.8,0,0,1-4.2-4.184h-5.936a0.209,0.209,0,0,0-.21.209V85.7h1.092a2.071,2.071,0,0,1,2.073,2.066v1.451a2.071,2.071,0,0,1-2.073,2.066h-3.313A2.072,2.072,0,0,1,905.357,89.213Zm24.449-2.391a0.943,0.943,0,0,0-.944.941v1.451a0.943,0.943,0,0,0,.944.941h3.313a0.943,0.943,0,0,0,.944-0.941V87.763a0.943,0.943,0,0,0-.944-0.941h-3.313Zm-12.185,6.449a0.977,0.977,0,0,0-.978.974v3.106a0.977,0.977,0,0,0,.978.974h5.693a0.977,0.977,0,0,0,.978-0.974V94.245a0.977,0.977,0,0,0-.978-0.974h-5.693Zm2.941-5.839a3.657,3.657,0,1,0-3.671-3.657A3.667,3.667,0,0,0,920.562,87.432Zm-8.874,1.781V87.763a0.944,0.944,0,0,0-.944-0.941h-3.313a0.943,0.943,0,0,0-.944.941v1.451a0.943,0.943,0,0,0,.944.941h3.313A0.944,0.944,0,0,0,911.688,89.213Zm-2.84,12.959h23.427a0.563,0.563,0,1,1,0,1.125H908.848A0.563,0.563,0,1,1,908.848,102.172Zm0,9.292h14.944a0.563,0.563,0,1,1,0,1.125H908.848A0.563,0.563,0,1,1,908.848,111.464Zm0-4.646h23.427a0.563,0.563,0,1,1,0,1.125H908.848A0.563,0.563,0,1,1,908.848,106.818ZM938.628,121H900.11a3.1,3.1,0,0,1-2.72-1.254,0.564,0.564,0,0,1,.906-0.671,2,2,0,0,0,1.8.816h38.309a4.417,4.417,0,0,0,4.465-4.4V78.269c0-3.137-.349-7.013-2.192-7.942a3.676,3.676,0,0,0-1.612-.359H927.308a5.291,5.291,0,0,1-4.9,3.311h-3.873a5.291,5.291,0,0,1-4.9-3.311H901.566a4.129,4.129,0,0,0-2.656.921,0.563,0.563,0,1,1-.726-0.862,5.262,5.262,0,0,1,3.382-1.185h11.752c-0.044-.27-0.072-1.008-0.072-1.008A1.841,1.841,0,0,1,915.088,66h10.759a1.842,1.842,0,0,1,1.843,1.836s-0.029.737-.073,1.008h11.449a4.823,4.823,0,0,1,2.117.478C943.54,70.508,944,74.768,944,78.269v37.224A5.346,5.346,0,0,1,938.628,121ZM925.847,67.125H915.088a0.713,0.713,0,0,0-.713.711,6.805,6.805,0,0,0,.216,1.486,4.159,4.159,0,0,0,3.94,2.833H922.4a4.16,4.16,0,0,0,3.954-2.871,5.685,5.685,0,0,0,.2-1.448A0.713,0.713,0,0,0,925.847,67.125ZM898.413,83.848v28.359a2.363,2.363,0,0,1-2.365,2.356h-0.684A2.363,2.363,0,0,1,893,112.207V83.848l0.017-.211,1.974-9.724a0.738,0.738,0,0,1,1.43,0l1.974,9.724C898.4,83.665,898.413,83.847,898.413,83.848Zm-2.707-8.173-1.415,7.539h2.83Zm1.577,8.664h-3.154v24.8h3.154v-24.8Zm0,25.921h-3.154v1.948a1.233,1.233,0,0,0,1.235,1.23h0.684a1.233,1.233,0,0,0,1.235-1.23v-1.948Z" transform="translate(-893 -66)"/>
</svg>

