<svg id="a99.svg" xmlns="http://www.w3.org/2000/svg" width="44.97" height="54" viewBox="0 0 44.97 54">
  <defs>
    <style>
      .cls-1, .cls-2 {
        fill-rule: evenodd;
      }

      .cls-1 {
        opacity: 0.2;
      }
    </style>
  </defs>
  <path id="Фигура_3_копия_2" data-name="Фигура 3 копия 2" class="cls-1" d="M1146.15,110s-0.74,4.312-2.96,6c-2.12,1.616-3.86,3.043-6.55,3-2.72.045-4.49-1.382-6.64-3-2.25-1.688-3-6-3-6h-10l1,1h1l2,3,2,3-2,4-1,2,2,2,5-3,6,2,1,4,1,2,1.18,0.591c0.07,0.259.11,0.409,0.11,0.409l0.35-.178L1137,131s0.04-.153.11-0.417l1.15-.583,0.99-2v-3l6.91-3,3.96,3,2.97-2-2-3-0.97-3,0.97-1,1.97-5h1.95l0.99-1h-9.85Z" transform="translate(-1113.94 -77)"/>
  <path id="Фигура_13" data-name="Фигура 13" class="cls-2" d="M1158.41,102.56h-3.76c-2.71,2.717-9.97,4.53-18.22,4.53s-15.52-1.813-18.22-4.53h-3.77a0.5,0.5,0,0,1-.5-0.5V95.419a0.5,0.5,0,0,1,.5-0.5h3.54a18.453,18.453,0,0,1,36.89,0h3.54a0.508,0.508,0,0,1,.51.5v6.639A0.507,0.507,0,0,1,1158.41,102.56Zm-0.5-6.638h-2.97v2.257h-1.01v-2.76h-0.04a17.405,17.405,0,0,0-10.04-15.735V90.1h-1.01V79.256a17.443,17.443,0,0,0-5.91-1.228V88.38h-1.01V78.028a17.386,17.386,0,0,0-5.9,1.228V90.1h-1.01V79.684a17.388,17.388,0,0,0-10.04,15.734h-0.04v2.76h-1.01V95.922h-2.97v5.632h3.47a0.517,0.517,0,0,1,.38.164c2.35,2.571,9.6,4.366,17.63,4.366s15.27-1.8,17.63-4.366a0.5,0.5,0,0,1,.37-0.164h3.48V95.922Zm-14.48,21.088a9.861,9.861,0,0,1-7,2.889h-0.01a9.9,9.9,0,0,1-9.9-9.889h1.01a8.89,8.89,0,0,0,8.89,8.883h0.01a8.9,8.9,0,0,0,8.9-8.869h1.01A9.852,9.852,0,0,1,1143.43,117.01Zm-28.48-10.145v2.955l5.44,1.393a0.5,0.5,0,0,1,.37.391,15.737,15.737,0,0,0,2.41,5.825,0.5,0.5,0,0,1,.01.537l-2.86,4.817,1.82,1.815,4.83-2.851a0.5,0.5,0,0,1,.54.016,15.782,15.782,0,0,0,5.84,2.41,0.508,0.508,0,0,1,.39.37l1.39,5.433,2.57,0,1.39-5.43a0.516,0.516,0,0,1,.4-0.369,15.872,15.872,0,0,0,5.84-2.4,0.506,0.506,0,0,1,.54-0.015l4.83,2.857,1.82-1.811-2.86-4.821a0.5,0.5,0,0,1,.01-0.537,15.6,15.6,0,0,0,2.42-5.822,0.508,0.508,0,0,1,.37-0.391l5.45-1.385V106.9h1.01v3.345a0.507,0.507,0,0,1-.38.487l-5.52,1.4a16.957,16.957,0,0,1-2.33,5.611l2.89,4.887a0.5,0.5,0,0,1-.07.612l-2.38,2.363a0.5,0.5,0,0,1-.61.077l-4.9-2.9a16.725,16.725,0,0,1-5.63,2.316l-1.41,5.5a0.508,0.508,0,0,1-.49.378l-3.36,0a0.489,0.489,0,0,1-.48-0.378l-1.41-5.507a16.741,16.741,0,0,1-5.63-2.324l-4.9,2.89a0.5,0.5,0,0,1-.61-0.077l-2.37-2.367a0.5,0.5,0,0,1-.08-0.613l2.91-4.882a16.558,16.558,0,0,1-2.33-5.615l-5.51-1.412a0.5,0.5,0,0,1-.38-0.487v-3.345h1.01Z" transform="translate(-1113.94 -77)"/>
</svg>

